<?xml version="1.0" standalone="no"?>
<!DOCTYPE svg PUBLIC "-//W3C//DTD SVG 20010904//EN"
 "http://www.w3.org/TR/2001/REC-SVG-20010904/DTD/svg10.dtd">
<svg version="1.0" xmlns="http://www.w3.org/2000/svg"
 width="480.000000pt" height="480.000000pt" viewBox="0 0 480.000000 480.000000"
 preserveAspectRatio="xMidYMid meet">
<metadata>
Created by potrace 1.14, written by Peter Selinger 2001-2017
</metadata>
<g transform="translate(0.000000,480.000000) scale(0.100000,-0.100000)"
fill="#000000" stroke="none">
<path d="M0 2400 c0 -1918 3 -2400 12 -2394 7 4 40 28 73 53 33 25 89 67 125
93 36 27 72 54 80 61 8 7 78 59 155 117 77 57 146 110 155 117 8 6 103 78 210
158 586 440 769 579 766 583 -3 2 -495 -159 -558 -183 -17 -7 -18 68 -18 1493
l0 1500 -34 28 c-18 16 -42 36 -52 44 -11 8 -62 49 -114 90 -52 41 -97 77
-100 80 -3 3 -21 17 -40 31 -19 15 -45 35 -57 45 -30 27 -52 44 -103 84 -54
42 -78 62 -94 75 -6 6 -40 33 -74 60 -35 28 -96 76 -135 108 -40 32 -79 64
-87 70 -9 7 -37 29 -63 50 l-47 38 0 -2401z"/>
<path d="M4746 4755 c-22 -19 -42 -35 -45 -35 -3 0 -19 -12 -36 -26 -34 -29
-54 -45 -360 -290 -121 -97 -238 -190 -259 -207 -22 -18 -69 -56 -105 -84 -36
-29 -83 -67 -103 -84 l-38 -31 0 -1500 c0 -1425 -1 -1500 -17 -1493 -80 32
-573 191 -562 181 8 -8 190 -145 404 -306 572 -430 789 -593 800 -603 62 -51
357 -267 365 -267 6 0 10 802 10 2390 0 1315 -4 2390 -8 2390 -4 0 -25 -16
-46 -35z"/>
<path d="M1800 2200 l0 -599 76 -203 c42 -112 81 -219 88 -238 21 -57 166
-444 173 -460 3 -8 7 -17 7 -20 1 -6 24 -63 41 -105 7 -16 57 -150 111 -297
54 -147 101 -268 104 -268 3 0 14 26 26 58 37 104 345 927 354 947 5 11 57
147 115 303 l105 282 0 600 0 600 -600 0 -600 0 0 -600z"/>
</g>
</svg>
